<?xml version="1.0" encoding="utf-8" ?>
<svg baseProfile="full" height="200mm" version="1.1" viewBox="0,0,200,200" width="200mm" xmlns="http://www.w3.org/2000/svg" xmlns:ev="http://www.w3.org/2001/xml-events" xmlns:xlink="http://www.w3.org/1999/xlink"><defs /><rect fill="#1a1a1a" height="200" width="200" x="0" y="0" /><text alignment-baseline="middle" fill="#e1ed5e" style="dominant-baseline: central; font-size:9.0px; font-family:Arial;" text-anchor="middle" x="100.0" y="100.0">2022</text><line stroke="#e1ed5e" stroke-width="0.3" x1="100.0" x2="100.0" y1="15.0" y2="10.0" /><path d="M 100.0 14.0 a86.0,86.0 0 0,1 42.46469731375804,11.215312516191453" fill="none" id="id109" stroke="none" /><text fill="#e1ed5e" style="font-size:6.75px; font-family:Arial;" text-anchor="middle"><textPath startOffset="22.20632615414155" xlink:href="#id109">January</textPath></text><line stroke="#e1ed5e" stroke-width="0.3" x1="143.23703022742887" x2="145.7803849466894" y1="26.81831364943548" y2="22.513508569990506" /><path d="M 143.74570117128098 25.957352633546492 a86.0,86.0 0 0,1 28.547481713284135,27.462654790039103" fill="none" id="id110" stroke="none" /><text fill="#e1ed5e" style="font-size:6.75px; font-family:Arial;" text-anchor="middle"><textPath startOffset="19.985693538727396" xlink:href="#id110">February</textPath></text><line stroke="#e1ed5e" stroke-width="0.3" x1="172.23445277983987" x2="176.4835382374775" y1="55.19839476539836" y2="52.563006222186495" /><path d="M 173.08426987136738 54.67131705675599 a86.0,86.0 0 0,1 12.851231095245387,41.99856678651699" fill="none" id="id111" stroke="none" /><text fill="#e1ed5e" style="font-size:6.75px; font-family:Arial;" text-anchor="middle"><textPath startOffset="22.20632615414155" xlink:href="#id111">March</textPath></text><line stroke="#e1ed5e" stroke-width="0.3" x1="184.98032266829074" x2="189.97916517819016" y1="98.17113171792111" y2="98.06355123074" /><path d="M 185.9800911702706 98.14961562048488 a86.0,86.0 0 0,1 -9.607161424134198,41.387399972396054" fill="none" id="id112" stroke="none" /><text fill="#e1ed5e" style="font-size:6.75px; font-family:Arial;" text-anchor="middle"><textPath startOffset="21.466115282336823" xlink:href="#id112">April</textPath></text><line stroke="#e1ed5e" stroke-width="0.3" x1="174.80103733775053" x2="179.2010983576182" y1="140.37084112569926" y2="142.7455964860345" /><path d="M 175.68104954172406 140.8457921977663 a86.0,86.0 0 0,1 -30.038265399797805,32.042727171017184" fill="none" id="id113" stroke="none" /><text fill="#e1ed5e" style="font-size:6.75px; font-family:Arial;" text-anchor="middle"><textPath startOffset="22.206326154141568" xlink:href="#id113">May</textPath></text><line stroke="#e1ed5e" stroke-width="0.3" x1="143.8653032363475" x2="146.44561519142675" y1="172.8068346515853" y2="177.08958963109032" /><path d="M 144.38136562736335 173.6633856474863 a86.0,86.0 0 0,1 -40.68145358897372,12.25698825130547" fill="none" id="id114" stroke="none" /><text fill="#e1ed5e" style="font-size:6.75px; font-family:Arial;" text-anchor="middle"><textPath startOffset="21.466115282336833" xlink:href="#id114">June</textPath></text><line stroke="#e1ed5e" stroke-width="0.3" x1="102.19456741930631" x2="102.32365962044197" y1="184.97166512339345" y2="189.96999836594603" /><path d="M 102.22038585953345 185.97133177190398 a86.0,86.0 0 0,1 -42.740103519485714,-10.115201625700543" fill="none" id="id115" stroke="none" /><text fill="#e1ed5e" style="font-size:6.75px; font-family:Arial;" text-anchor="middle"><textPath startOffset="22.20632615414155" xlink:href="#id115">July</textPath></text><path d="M 98.73552117531835 120.96189622390904 l -1.597224254608419 26.477983195836792 a47.52611391513135,47.52611391513135 0 0,0 -0.8161755482504307,-0.05628824437033013 l 2.05276256363778 -26.446566606950174" fill="#ff0000" stroke="none" /><path d="M 98.01472825383883 120.90594882070398 l -3.2317733104393525 34.03226160791641 a55.185365127196306,55.185365127196306 0 0,0 -0.9448980211503912,-0.09794254334714496 l 3.817103928195337 -33.971589696113504" fill="#ffb310" stroke="none" /><path d="M 97.2962882734958 120.8252237178851 l -4.87305339831859 37.5344849875686 a58.84949421993479,58.84949421993479 0 0,0 -1.0034438715844998,-0.13906817720022382 l 5.518425861089921 -37.44504224487577" fill="#fdff18" stroke="none" /><path d="M 96.58105272829116 120.7198165907248 l -6.698374111986673 40.59409871713345 a62.143031808564,62.143031808564 0 0,0 -1.0539192711650087,-0.183237374504791 l 7.3961423546237315 -40.472782764107656" fill="#bbff1f" stroke="none" /><path d="M 95.86986931433489 120.58985236759428 l -7.38752856311711 36.82888849108469 a58.56251596684681,58.56251596684681 0 0,0 -0.9866627709165844,-0.20676477678800617 l 8.020382795463082 -36.696267733570146" fill="#fffb17" stroke="none" /><path d="M 95.16358092515715 120.4354850818985 l -9.505313814277802 40.16312392381948 a62.272600039590195,62.272600039590195 0 0,0 -1.040980556876093,-0.2558476939490253 l 10.195247655897106 -39.99355497155642" fill="#b8ff1f" stroke="none" /><path d="M 94.11515582081647 120.15858648285463 l -12.419737391007498 42.54392175354141 a65.3196926324297,65.3196926324297 0 0,0 -1.0766085848550009,-0.32437333506192323 l 13.150220950302746 -42.32383304937376" fill="#7fff26" stroke="none" /><path d="M 93.42475214034765 119.94407469862007 l -14.172475836915943 42.98802460213025 a66.26399596303139,66.26399596303139 0 0,0 -1.0801986397462442,-0.3664620270162523 l 14.910344209599414 -42.737699588215875" fill="#6eff28" stroke="none" /><path d="M 92.7421414339146 119.70592522655815 l -12.732270694922617 34.56958715768538 a57.83974855100929,57.83974855100929 0 0,0 -0.931301971849215,-0.3521387174113745 l 13.325442887532116 -34.34530019016737" fill="#ffec16" stroke="none" /><path d="M 91.7346041902142 119.30500536409082 l -15.949411869707628 37.252115783040665 a61.52288081198865,61.52288081198865 0 0,0 -0.9699501843973939,-0.4251976566314356 l 16.588282728762767 -36.97205357311477" fill="#c7ff1e" stroke="none" /><path d="M 91.07499286063937 119.00905698771935 l -16.586987941951904 35.328038859783476 a60.028175702495105,60.028175702495105 0 0,0 -0.9315439059285155,-0.4471976846756303 l 17.192644515880662 -35.037286898608286" fill="#e5ff1a" stroke="none" /><path d="M 90.10565033884886 118.52300852407294 l -20.65380809895912 38.665569398027216 a64.83612717681945,64.83612717681945 0 0,0 -0.9798813206050558,-0.5343094243638717 l 21.316312231432818 -38.30431932190358" fill="#88ff25" stroke="none" /><line stroke="#e1ed5e" stroke-width="0.3" x1="58.666819895761336" x2="56.23545636021788" y1="174.27360380694188" y2="178.64263932499728" /><path d="M 58.180547188652646 175.14741091055294 a86.0,86.0 0 0,1 -31.652253787137756,-30.449443065178592" fill="none" id="id116" stroke="none" /><text fill="#e1ed5e" style="font-size:6.75px; font-family:Arial;" text-anchor="middle"><textPath startOffset="22.20632615414155" xlink:href="#id116">August</textPath></text><path d="M 87.95078237400918 117.19931262002967 l -22.23747129547321 31.742245228003277 a59.75661571566449,59.75661571566449 0 0,0 -0.8373685231121804,-0.5974402077273173 l 22.780567146434276 -31.35476075843174" fill="#eaff1a" stroke="none" /><path d="M 87.07902340077011 116.55440617244103 l -27.188442819990755 34.83394015783151 a65.18840130504037,65.18840130504037 0 0,0 -0.8786232643393178,-0.6980314597012982 l 27.78402357704743 -34.360774784125084" fill="#82ff25" stroke="none" /><path d="M 86.51685102203217 116.09983520530335 l -27.922287513077077 33.34118967684914 a64.4889534138334,64.4889534138334 0 0,0 -0.8449113077885454,-0.7200517464567743 l 28.492064297442678 -32.855613540169415" fill="#8fff24" stroke="none" /><path d="M 85.97065885151581 115.62618273729859 l -29.62920115673133 33.001643251457075 a65.35085138396434,65.35085138396434 0 0,0 -0.8305796036716528,-0.7587147751017228 l 30.19288030986984 -32.48673570976877" fill="#7fff26" stroke="none" /><path d="M 84.67929136418377 114.36230785411682 l -19.428636405303173 18.2132604875949 a47.63071103366295,47.63071103366295 0 0,0 -0.5555863694006288,-0.6029792743437651 l 19.73926918269953 -17.876129958449795" fill="#ff0300" stroke="none" /><path d="M 83.95833913139862 113.55231037782056 l -33.08999453411005 27.955077719190285 a64.31782668317285,64.31782668317285 0 0,0 -0.7072020694904215,-0.8518704504206042 l 33.566292603494006 -27.38134601165592" fill="#92ff23" stroke="none" /><path d="M 83.28015986056508 112.70617746262583 l -36.320775488805886 27.601832020659224 a66.61863504101072,66.61863504101072 0 0,0 -0.6859775836081228,-0.9189790740976528 l 36.79051433910909 -26.97254006705226" fill="#68ff28" stroke="none" /><path d="M 82.85270091963577 112.12312394758628 l -46.14988276504445 32.62792270112581 a77.51896158828458,77.51896158828458 0 0,0 -0.7609375437877322,-1.0961872852300212 l 46.70468121599432 -31.82869415370878" fill="#3fffc1" stroke="none" /><path d="M 82.44556493220864 111.52570212397912 l -39.7801021941004 26.11839153923484 a68.58809627595798,68.58809627595798 0 0,0 -0.6394864610028351,-0.9924971886081801 l 40.223793518480285 -25.429772750705208" fill="#46ff2c" stroke="none" /><path d="M 82.05923443525364 110.91462005526583 l -32.02140030242946 19.480853070471127 a58.48164502368745,58.48164502368745 0 0,0 -0.5158056704292497,-0.8645199727261553 l 32.35198684855695 -18.926771003858864" fill="#fffa17" stroke="none" /><line stroke="#e1ed5e" stroke-width="0.3" x1="26.63291911575756" x2="22.317208475507996" y1="142.92168965132927" y2="145.44649492493687" /><path d="M 25.769776987707644 143.4266507060508 a86.0,86.0 0 0,1 -11.730757126820373,-40.83630448921669" fill="none" id="id117" stroke="none" /><text fill="#e1ed5e" style="font-size:6.75px; font-family:Arial;" text-anchor="middle"><textPath startOffset="21.46611528233685" xlink:href="#id117">September</textPath></text><path d="M 81.02952815118164 109.00673069616217 l -35.72128083415832 16.959618040037473 a60.54286975545365,60.54286975545365 0 0,0 -0.43886483553049527,-0.9452758124840417 l 36.007920286528645 -16.342222160274602" fill="#daff1b" stroke="none" /><path d="M 80.73074385275274 108.34839909993369 l -51.96204576392671 22.512539808042877 a77.62922080146546,77.62922080146546 0 0,0 -0.5206666466996283,-1.2307021503568751 l 52.34186339181864 -21.614763132019842" fill="#40ffc3" stroke="none" /><path d="M 80.32549172779594 107.34259656027581 l -46.90592908686521 17.505459796234824 a71.06602946289651,71.06602946289651 0 0,0 -0.4178538335883639,-1.1497542889546322 l 47.2003071814588 -16.695457710274074" fill="#32ff46" stroke="none" /><path d="M 79.86692584326677 105.97154293290107 l -58.55241105493382 17.36685782396892 a82.07366528237753,82.07366528237753 0 0,0 -0.39007410061555275,-1.357899117157145 l 58.84267779243548 -16.35640123130718" fill="#49f0ff" stroke="none" /><path d="M 79.50377843672027 104.57218783832718 l -59.282594685898495 13.224445179347086 a81.73970680694859,81.73970680694859 0 0,0 -0.2945196899966733,-1.375897941010993 l 59.50144841461961 -12.202033418919928" fill="#48f6ff" stroke="none" /><path d="M 79.35854240842038 103.8639653848113 l -59.72281941044564 11.179777680982957 a81.76020562283267,81.76020562283267 0 0,0 -0.24704647246896191,-1.3855678151125248 l 59.90641232525379 -10.150091115137219" fill="#48f5ff" stroke="none" /><path d="M 79.23777060512086 103.15116336523772 l -62.286688184637434 9.45349009571317 a84.0,84.0 0 0,0 -0.20466379593360395,-1.4314181120783975 l 62.440186031587636 -8.379926511654372" fill="#4dd2ff" stroke="none" /><path d="M 79.1416061653843 102.43462659150553 l -60.15818624510471 7.021764048102831 a81.56659593082588,81.56659593082588 0 0,0 -0.15077273944896796,-1.395968313756028 l 60.270141286054724 -5.985199412462022" fill="#48f8ff" stroke="none" /><line stroke="#e1ed5e" stroke-width="0.3" x1="15.007084014347285" x2="10.007500721073583" y1="101.09737516637583" y2="101.16192664675087" /><path d="M 14.007167355692545 101.11028546245083 a86.0,86.0 0 0,1 10.666146001902534,-42.60595125391555" fill="none" id="id118" stroke="none" /><text fill="#e1ed5e" style="font-size:6.75px; font-family:Arial;" text-anchor="middle"><textPath startOffset="22.20632615414155" xlink:href="#id118">October</textPath></text><path d="M 79.3925641242962 95.95851677861259 l -45.270224163125306 -8.87829288841445 a67.13260539349675,67.13260539349675 0 0,0 0.2321531938445984,-1.1320614207149173 l 45.110691673365714 9.65622996529277" fill="#5fff29" stroke="none" /><path d="M 79.54389044137918 95.25157060432595 l -52.05742332072397 -12.083969263598297 a74.44153474552022,74.44153474552022 0 0,0 0.30048573546023855,-1.245707366072188 l 51.84170478500292 12.978261861329882" fill="#39ff88" stroke="none" /><path d="M 79.81627453868168 94.20196356495316 l -54.084426583408465 -15.536451707104051 a77.27172052197513,77.27172052197513 0 0,0 0.3782417709376827,-1.2752432175452832 l 53.80897891535908 16.465124311395876" fill="#3fffbc" stroke="none" /><path d="M 80.02781315780177 93.51064311812611 l -55.432474175370274 -18.01110267049972 a79.28515259146513,79.28515259146513 0 0,0 0.4329071504693031,-1.2943372784410572 l 55.1142297311292 18.9626130518631" fill="#43ffdf" stroke="none" /><line stroke="#e1ed5e" stroke-width="0.3" x1="26.266209847984243" x2="21.928928074336255" y1="57.711370442889674" y2="55.22380399835377" /><path d="M 25.398753493254645 57.213857153982495 a86.0,86.0 0 0,1 29.58750427330803,-30.492523968695096" fill="none" id="id119" stroke="none" /><text fill="#e1ed5e" style="font-size:6.75px; font-family:Arial;" text-anchor="middle"><textPath startOffset="21.46611528233685" xlink:href="#id119">November</textPath></text><line stroke="#e1ed5e" stroke-width="0.3" x1="56.762969772571076" x2="54.21961505331055" y1="26.818313649435495" y2="22.513508569990535" /><path d="M 56.25429882871897 25.957352633546506 a86.0,86.0 0 0,1 42.265352541879196,-11.944610805530505" fill="none" id="id120" stroke="none" /><text fill="#e1ed5e" style="font-size:6.75px; font-family:Arial;" text-anchor="middle"><textPath startOffset="22.20632615414155" xlink:href="#id120">December</textPath></text></svg>