<?xml version="1.0" encoding="utf-8" ?>
<svg baseProfile="full" height="200mm" version="1.1" viewBox="0,0,200,200" width="200mm" xmlns="http://www.w3.org/2000/svg" xmlns:ev="http://www.w3.org/2001/xml-events" xmlns:xlink="http://www.w3.org/1999/xlink"><defs /><rect fill="#1a1a1a" height="200" width="200" x="0" y="0" /><text alignment-baseline="middle" fill="#e1ed5e" style="dominant-baseline: central; font-size:9.0px; font-family:Arial;" text-anchor="middle" x="100.0" y="100.0">2022</text><line stroke="#e1ed5e" stroke-width="0.3" x1="100.0" x2="100.0" y1="15.0" y2="10.0" /><path d="M 100.0 14.0 a86.0,86.0 0 0,1 42.46469731375804,11.215312516191453" fill="none" id="id109" stroke="none" /><text fill="#e1ed5e" style="font-size:6.75px; font-family:Arial;" text-anchor="middle"><textPath startOffset="22.20632615414155" xlink:href="#id109">January</textPath></text><line stroke="#e1ed5e" stroke-width="0.3" x1="143.23703022742887" x2="145.7803849466894" y1="26.81831364943548" y2="22.513508569990506" /><path d="M 143.74570117128098 25.957352633546492 a86.0,86.0 0 0,1 28.547481713284135,27.462654790039103" fill="none" id="id110" stroke="none" /><text fill="#e1ed5e" style="font-size:6.75px; font-family:Arial;" text-anchor="middle"><textPath startOffset="19.985693538727396" xlink:href="#id110">February</textPath></text><line stroke="#e1ed5e" stroke-width="0.3" x1="172.23445277983987" x2="176.4835382374775" y1="55.19839476539836" y2="52.563006222186495" /><path d="M 173.08426987136738 54.67131705675599 a86.0,86.0 0 0,1 12.851231095245387,41.99856678651699" fill="none" id="id111" stroke="none" /><text fill="#e1ed5e" style="font-size:6.75px; font-family:Arial;" text-anchor="middle"><textPath startOffset="22.20632615414155" xlink:href="#id111">March</textPath></text><line stroke="#e1ed5e" stroke-width="0.3" x1="184.98032266829074" x2="189.97916517819016" y1="98.17113171792111" y2="98.06355123074" /><path d="M 185.9800911702706 98.14961562048488 a86.0,86.0 0 0,1 -9.607161424134198,41.387399972396054" fill="none" id="id112" stroke="none" /><text fill="#e1ed5e" style="font-size:6.75px; font-family:Arial;" text-anchor="middle"><textPath startOffset="21.466115282336823" xlink:href="#id112">April</textPath></text><line stroke="#e1ed5e" stroke-width="0.3" x1="174.80103733775053" x2="179.2010983576182" y1="140.37084112569926" y2="142.7455964860345" /><path d="M 175.68104954172406 140.8457921977663 a86.0,86.0 0 0,1 -30.038265399797805,32.042727171017184" fill="none" id="id113" stroke="none" /><text fill="#e1ed5e" style="font-size:6.75px; font-family:Arial;" text-anchor="middle"><textPath startOffset="22.206326154141568" xlink:href="#id113">May</textPath></text><line stroke="#e1ed5e" stroke-width="0.3" x1="143.8653032363475" x2="146.44561519142675" y1="172.8068346515853" y2="177.08958963109032" /><path d="M 144.38136562736335 173.6633856474863 a86.0,86.0 0 0,1 -40.68145358897372,12.25698825130547" fill="none" id="id114" stroke="none" /><text fill="#e1ed5e" style="font-size:6.75px; font-family:Arial;" text-anchor="middle"><textPath startOffset="21.466115282336833" xlink:href="#id114">June</textPath></text><line stroke="#e1ed5e" stroke-width="0.3" x1="102.19456741930631" x2="102.32365962044197" y1="184.97166512339345" y2="189.96999836594603" /><path d="M 102.22038585953345 185.97133177190398 a86.0,86.0 0 0,1 -42.740103519485714,-10.115201625700543" fill="none" id="id115" stroke="none" /><text fill="#e1ed5e" style="font-size:6.75px; font-family:Arial;" text-anchor="middle"><textPath startOffset="22.20632615414155" xlink:href="#id115">July</textPath></text><path d="M 98.73552117531835 120.96189622390904 l -1.7769117536176031 29.456752498606704 a50.510297916902104,50.510297916902104 0 0,0 -0.8674235425231112,-0.05982260610328516 l 2.2836980569196443 -29.421801547987133" fill="#ff0000" stroke="none" /><path d="M 98.01472825383883 120.90594882070398 l -3.595347343229035 37.860886145960365 a59.03121378914743,59.03121378914743 0 0,0 -1.0107476314944683,-0.10476812470212048 l 4.246527571329096 -37.793388652802484" fill="#ffd614" stroke="none" /><path d="M 97.2962882734958 120.8252237178851 l -5.421271205026479 41.757109152305844 a63.10755687802409,63.10755687802409 0 0,0 -1.0760481808605369,-0.1491304728939093 l 6.139247977073847 -41.657604113919334" fill="#ccff1d" stroke="none" /><path d="M 96.58105272829116 120.7198165907248 l -7.4519402365543375 45.16092898656352 a66.77161697185943,66.77161697185943 0 0,0 -1.1324180981429552,-0.19688540177849737 l 8.228207306169343 -45.025965006264016" fill="#81ff25" stroke="none" /><path d="M 95.86986931433489 120.58985236759428 l -8.21862446435664 40.9721331514117 a62.78829361272282,62.78829361272282 0 0,0 -1.0578587810695252,-0.2216845929413958 l 8.922674706855553 -40.82459257774376" fill="#d3ff1c" stroke="none" /><path d="M 95.16358092515715 120.4354850818985 l -10.574660251797159 44.68146959096334 a66.91576161024796,66.91576161024796 0 0,0 -1.1185980148659007,-0.27492417669954927 l 11.342211551406269 -44.492824155949755" fill="#7eff26" stroke="none" /><path d="M 94.11515582081647 120.15858648285463 l -13.816956061899836 47.33010683423969 a70.30565168169886,70.30565168169886 0 0,0 -1.1587878802534852,-0.3491332826384471 l 14.629618916593566 -47.08525818249552" fill="#3eff2e" stroke="none" /><path d="M 93.42475214034765 119.94407469862007 l -15.766877330980309 47.824171189445735 a71.35618900122995,71.35618900122995 0 0,0 -1.1632087255891828,-0.3946235550921834 l 16.58775578950672 -47.545684647455424" fill="#30ff35" stroke="none" /><path d="M 92.7421414339146 119.70592522655815 l -14.16464931757223 38.4586607428266 a61.984214966516454,61.984214966516454 0 0,0 -0.9980337582369225,-0.3773709690112259 l 14.824553296569437 -38.209141523708745" fill="#e5ff1a" stroke="none" /><path d="M 91.7346041902142 119.30500536409082 l -17.743718411989487 41.44297345286497 a66.08169907732899,66.08169907732899 0 0,0 -1.0418230641901005,-0.4567046149833204 l 18.45446215083733 -41.1314042845872" fill="#8fff24" stroke="none" /><path d="M 91.07499286063937 119.00905698771935 l -18.453021700696397 39.30243815236749 a64.41883985791242,64.41883985791242 0 0,0 -0.9996801834197497,-0.47990723850618744 l 19.12681455211639 -38.97897663736175" fill="#b1ff20" stroke="none" /><path d="M 90.10565033884886 118.52300852407294 l -22.9773585406768 43.01544039632411 a69.76768518185506,69.76768518185506 0 0,0 -1.0544129402595748,-0.5749500059905561 l 23.714394292805014 -42.61354973857379" fill="#48ff2c" stroke="none" /><line stroke="#e1ed5e" stroke-width="0.3" x1="58.666819895761336" x2="56.23545636021788" y1="174.27360380694188" y2="178.64263932499728" /><path d="M 58.180547188652646 175.14741091055294 a86.0,86.0 0 0,1 -31.652253787137756,-30.449443065178592" fill="none" id="id116" stroke="none" /><text fill="#e1ed5e" style="font-size:6.75px; font-family:Arial;" text-anchor="middle"><textPath startOffset="22.20632615414155" xlink:href="#id116">August</textPath></text><path d="M 87.95078237400918 117.19931262002967 l -24.739183619114147 35.313243252544574 a64.11672941160577,64.11672941160577 0 0,0 -0.8984667282639569,-0.6410321548451499 l 25.343377675226993 -34.8821668358552" fill="#b7ff1f" stroke="none" /><path d="M 87.07902340077011 116.55440617244103 l -30.24713872833461 38.75275341748292 a70.1595900988541,70.1595900988541 0 0,0 -0.9456260138810515,-0.7512624962158909 l 30.90972223493302 -38.226357007261896" fill="#40ff2d" stroke="none" /><path d="M 86.51685102203217 116.09983520530335 l -31.06354084388768 37.092068722004015 a69.38145442044654,69.38145442044654 0 0,0 -0.909011114112392,-0.7746789920215572 l 31.697417434577126 -36.55186533975951" fill="#4fff2b" stroke="none" /><path d="M 85.97065885151581 115.62618273729859 l -32.96248202704864 36.71432337257222 a70.34031578830142,70.34031578830142 0 0,0 -0.8939934273591128,-0.8166417995129696 l 33.58957500387461 -36.141488806472665" fill="#3dff2e" stroke="none" /><path d="M 84.67929136418377 114.36230785411682 l -21.614355207628513 20.262249673913672 a50.626662196230484,50.626662196230484 0 0,0 -0.5905325121977855,-0.6409064104030524 l 21.959934127822027 -19.887192008709274" fill="#ff0300" stroke="none" /><path d="M 83.95833913139862 113.55231037782056 l -36.8126141618213 31.10001994347434 a69.19107595718971,69.19107595718971 0 0,0 -0.7607855338183459,-0.9164151850323339 l 37.34249569553319 -30.461743501328247" fill="#52ff2b" stroke="none" /><path d="M 83.28015986056508 112.70617746262583 l -40.406857509428356 30.707034154644976 a71.75072492449522,71.75072492449522 0 0,0 -0.7388231367324873,-0.9897743284046069 l 40.92944191285593 -30.00694694673106" fill="#31ff3e" stroke="none" /><path d="M 82.85270091963577 112.12312394758628 l -51.34173794110482 36.29855931405881 a83.87733664118835,83.87733664118835 0 0,0 -0.823352289755756,-1.1861003819086826 l 51.958951138022705 -35.40941766996311" fill="#4dd4ff" stroke="none" /><path d="M 82.44556493220864 111.52570212397912 l -44.25535797171823 29.056706832335824 a73.94175026522296,73.94175026522296 0 0,0 -0.6894016712057001,-1.0699667033144658 l 44.74896450630098 -28.29061852909991" fill="#36ff6d" stroke="none" /><path d="M 82.05923443525364 110.91462005526583 l -35.62380323270934 21.67244624012063 a62.69832470008491,62.69832470008491 0 0,0 -0.5529966093398879,-0.9268541255591943 l 35.99158071774746 -21.056030020675326" fill="#d5ff1c" stroke="none" /><line stroke="#e1ed5e" stroke-width="0.3" x1="26.63291911575756" x2="22.317208475507996" y1="142.92168965132927" y2="145.44649492493687" /><path d="M 25.769776987707644 143.4266507060508 a86.0,86.0 0 0,1 -11.730757126820373,-40.83630448921669" fill="none" id="id117" stroke="none" /><text fill="#e1ed5e" style="font-size:6.75px; font-family:Arial;" text-anchor="middle"><textPath startOffset="21.46611528233685" xlink:href="#id117">September</textPath></text><path d="M 81.02952815118164 109.00673069616217 l -39.73991979232278 18.867572631243252 a64.99143691783081,64.99143691783081 0 0,0 -0.47111173271176326,-1.0147327601938436 l 40.05880614187437 -18.180719803770582" fill="#a5ff21" stroke="none" /><path d="M 80.73074385275274 108.34839909993369 l -57.80776844174178 25.045197299801067 a84.0,84.0 0 0,0 -0.5633960752307736,-1.3317018973353647 l 58.23031549816486 -24.046420876799544" fill="#4dd2ff" stroke="none" /><path d="M 80.32549172779594 107.34259656027581 l -52.182839365433 19.474821506536685 a76.69845057943755,76.69845057943755 0 0,0 -0.45097132690715835,-1.240879407170541 l 52.51033495334538 -18.57369430236003" fill="#3cffa6" stroke="none" /><line stroke="#e1ed5e" stroke-width="0.3" x1="15.007084014347285" x2="10.007500721073583" y1="101.09737516637583" y2="101.16192664675087" /><path d="M 14.007167355692545 101.11028546245083 a86.0,86.0 0 0,1 10.666146001902534,-42.60595125391555" fill="none" id="id118" stroke="none" /><text fill="#e1ed5e" style="font-size:6.75px; font-family:Arial;" text-anchor="middle"><textPath startOffset="22.20632615414155" xlink:href="#id118">October</textPath></text><line stroke="#e1ed5e" stroke-width="0.3" x1="26.266209847984243" x2="21.928928074336255" y1="57.711370442889674" y2="55.22380399835377" /><path d="M 25.398753493254645 57.213857153982495 a86.0,86.0 0 0,1 29.58750427330803,-30.492523968695096" fill="none" id="id119" stroke="none" /><text fill="#e1ed5e" style="font-size:6.75px; font-family:Arial;" text-anchor="middle"><textPath startOffset="21.46611528233685" xlink:href="#id119">November</textPath></text><line stroke="#e1ed5e" stroke-width="0.3" x1="56.762969772571076" x2="54.21961505331055" y1="26.818313649435495" y2="22.513508569990535" /><path d="M 56.25429882871897 25.957352633546506 a86.0,86.0 0 0,1 42.265352541879196,-11.944610805530505" fill="none" id="id120" stroke="none" /><text fill="#e1ed5e" style="font-size:6.75px; font-family:Arial;" text-anchor="middle"><textPath startOffset="22.20632615414155" xlink:href="#id120">December</textPath></text></svg>