<?xml version="1.0" encoding="utf-8" ?>
<svg baseProfile="full" height="200mm" version="1.1" viewBox="0,0,200,200" width="200mm" xmlns="http://www.w3.org/2000/svg" xmlns:ev="http://www.w3.org/2001/xml-events" xmlns:xlink="http://www.w3.org/1999/xlink"><defs /><rect fill="#1a1a1a" height="200" width="200" x="0" y="0" /><text alignment-baseline="middle" fill="#e1ed5e" style="dominant-baseline: central; font-size:9.0px; font-family:Arial;" text-anchor="middle" x="100.0" y="100.0">2022</text><line stroke="#e1ed5e" stroke-width="0.3" x1="100.0" x2="100.0" y1="15.0" y2="10.0" /><path d="M 100.0 14.0 a86.0,86.0 0 0,1 42.46469731375804,11.215312516191453" fill="none" id="id109" stroke="none" /><text fill="#e1ed5e" style="font-size:6.75px; font-family:Arial;" text-anchor="middle"><textPath startOffset="22.20632615414155" xlink:href="#id109">January</textPath></text><line stroke="#e1ed5e" stroke-width="0.3" x1="143.23703022742887" x2="145.7803849466894" y1="26.81831364943548" y2="22.513508569990506" /><path d="M 143.74570117128098 25.957352633546492 a86.0,86.0 0 0,1 28.547481713284135,27.462654790039103" fill="none" id="id110" stroke="none" /><text fill="#e1ed5e" style="font-size:6.75px; font-family:Arial;" text-anchor="middle"><textPath startOffset="19.985693538727396" xlink:href="#id110">February</textPath></text><line stroke="#e1ed5e" stroke-width="0.3" x1="172.23445277983987" x2="176.4835382374775" y1="55.19839476539836" y2="52.563006222186495" /><path d="M 173.08426987136738 54.67131705675599 a86.0,86.0 0 0,1 12.851231095245387,41.99856678651699" fill="none" id="id111" stroke="none" /><text fill="#e1ed5e" style="font-size:6.75px; font-family:Arial;" text-anchor="middle"><textPath startOffset="22.20632615414155" xlink:href="#id111">March</textPath></text><line stroke="#e1ed5e" stroke-width="0.3" x1="184.98032266829074" x2="189.97916517819016" y1="98.17113171792111" y2="98.06355123074" /><path d="M 185.9800911702706 98.14961562048488 a86.0,86.0 0 0,1 -9.607161424134198,41.387399972396054" fill="none" id="id112" stroke="none" /><text fill="#e1ed5e" style="font-size:6.75px; font-family:Arial;" text-anchor="middle"><textPath startOffset="21.466115282336823" xlink:href="#id112">April</textPath></text><line stroke="#e1ed5e" stroke-width="0.3" x1="174.80103733775053" x2="179.2010983576182" y1="140.37084112569926" y2="142.7455964860345" /><path d="M 175.68104954172406 140.8457921977663 a86.0,86.0 0 0,1 -30.038265399797805,32.042727171017184" fill="none" id="id113" stroke="none" /><text fill="#e1ed5e" style="font-size:6.75px; font-family:Arial;" text-anchor="middle"><textPath startOffset="22.206326154141568" xlink:href="#id113">May</textPath></text><line stroke="#e1ed5e" stroke-width="0.3" x1="143.8653032363475" x2="146.44561519142675" y1="172.8068346515853" y2="177.08958963109032" /><path d="M 144.38136562736335 173.6633856474863 a86.0,86.0 0 0,1 -40.68145358897372,12.25698825130547" fill="none" id="id114" stroke="none" /><text fill="#e1ed5e" style="font-size:6.75px; font-family:Arial;" text-anchor="middle"><textPath startOffset="21.466115282336833" xlink:href="#id114">June</textPath></text><line stroke="#e1ed5e" stroke-width="0.3" x1="102.19456741930631" x2="102.32365962044197" y1="184.97166512339345" y2="189.96999836594603" /><path d="M 102.22038585953345 185.97133177190398 a86.0,86.0 0 0,1 -42.740103519485714,-10.115201625700543" fill="none" id="id115" stroke="none" /><text fill="#e1ed5e" style="font-size:6.75px; font-family:Arial;" text-anchor="middle"><textPath startOffset="22.20632615414155" xlink:href="#id115">July</textPath></text><path d="M 98.73552117531835 120.96189622390904 l -1.7803782166654012 29.514217785690697 a50.56786766230459,50.56786766230459 0 0,0 -0.8684121993823785,-0.05989078966871068 l 2.2881531768267096 -29.4791986515057" fill="#ff0000" stroke="none" /><path d="M 98.01472825383883 120.90594882070398 l -3.6023612755100998 37.93474651776255 a59.10540644221227,59.10540644221227 0 0,0 -1.0120179771903477,-0.10489980122762853 l 4.254811849306041 -37.867117348079155" fill="#ffd714" stroke="none" /><path d="M 97.2962882734958 120.8252237178851 l -5.431847214930211 41.838570415401584 a63.18970180708631,63.18970180708631 0 0,0 -1.0774488356451164,-0.14932459088425654 l 6.151224641762158 -41.73887125902472" fill="#cbff1d" stroke="none" /><path d="M 96.58105272829116 120.7198165907248 l -7.466477748286042 45.24903054322071 a66.86090988049595,66.86090988049595 0 0,0 -1.1339324677263434,-0.19714869434186724 l 8.244259187484435 -45.11380327035784" fill="#80ff26" stroke="none" /><path d="M 95.86986931433489 120.58985236759428 l -8.234657651120935 41.0520630552292 a62.86981571158008,62.86981571158008 0 0,0 -1.059232267481806,-0.2219724203732475 l 8.940081380032128 -40.904234654129404" fill="#d2ff1c" stroke="none" /><path d="M 95.16358092515715 120.4354850818985 l -10.595289677502313 44.76863580107087 a67.00533572140422,67.00533572140422 0 0,0 -1.1200953814132082,-0.27529219296613033 l 11.364338343658732 -44.57962234979071" fill="#7dff26" stroke="none" /><path d="M 94.11515582081647 120.15858648285463 l -13.843910674318893 47.42244010068088 a70.40183891173675,70.40183891173675 0 0,0 -1.160373252037075,-0.3496109421518397 l 14.658158900796215 -47.177113789423316" fill="#3cff2e" stroke="none" /><path d="M 93.42475214034765 119.94407469862007 l -15.797635919602248 47.91746829431449 a71.45442565707137,71.45442565707137 0 0,0 -1.1648101246667804,-0.39516683660582813 l 16.620115777206255 -47.638438470810534" fill="#30ff37" stroke="none" /><path d="M 92.7421414339146 119.70592522655815 l -14.192282222439015 38.53368727470777 a62.06416843997129,62.06416843997129 0 0,0 -0.9993211225382908,-0.3778577400346189 l 14.85347356573759 -38.28368128456652" fill="#e4ff1a" stroke="none" /><path d="M 91.7346041902142 119.30500536409082 l -17.778333492946924 41.52382188879476 a66.16964606944346,66.16964606944346 0 0,0 -1.043209608514631,-0.4573124352684129 l 18.4904637761193 -41.21164490023189" fill="#8eff24" stroke="none" /><path d="M 91.07499286063937 119.00905698771935 l -18.489020515896684 39.37911075541951 a64.50354288474497,64.50354288474497 0 0,0 -1.000994642630548,-0.48053825880692536 l 19.164127826527473 -39.05501822011303" fill="#b0ff20" stroke="none" /><path d="M 90.10565033884886 118.52300852407294 l -23.022183594118598 43.09935645704859 a69.86282292759026,69.86282292759026 0 0,0 -1.0558507759846507,-0.575734028670079 l 23.76065718197189 -42.69668177661875" fill="#46ff2c" stroke="none" /><line stroke="#e1ed5e" stroke-width="0.3" x1="58.666819895761336" x2="56.23545636021788" y1="174.27360380694188" y2="178.64263932499728" /><path d="M 58.180547188652646 175.14741091055294 a86.0,86.0 0 0,1 -31.652253787137756,-30.449443065178592" fill="none" id="id116" stroke="none" /><text fill="#e1ed5e" style="font-size:6.75px; font-family:Arial;" text-anchor="middle"><textPath startOffset="22.20632615414155" xlink:href="#id116">August</textPath></text><path d="M 87.95078237400918 117.19931262002967 l -24.78744570397782 35.38213359140559 a64.20084307056658,64.20084307056658 0 0,0 -0.8996454116538047,-0.6418731141478212 l 25.39281844348051 -34.950216215413555" fill="#b6ff1f" stroke="none" /><path d="M 87.07902340077011 116.55440617244103 l -30.306145929164888 38.82835367587991 a70.25549238672835,70.25549238672835 0 0,0 -0.9469186055007691,-0.7522894091736164 l 30.970022027383013 -38.30093035270116" fill="#3fff2d" stroke="none" /><path d="M 86.51685102203217 116.09983520530335 l -31.124140711185454 37.164429257258185 a69.47583869338848,69.47583869338848 0 0,0 -0.9102477032530825,-0.7757328401144822 l 31.759253891015597 -36.623172026920756" fill="#4dff2c" stroke="none" /><path d="M 85.97065885151581 115.62618273729859 l -33.02678641677302 36.78594698867854 a70.43657064231914,70.43657064231914 0 0,0 -0.8952167827830809,-0.8177593056872873 l 33.65510274902296 -36.21199491640468" fill="#3cff2e" stroke="none" /><path d="M 84.67929136418377 114.36230785411682 l -21.656521265383876 20.301777995799597 a50.68445894923397,50.68445894923397 0 0,0 -0.5912066799241849,-0.6416380863203159 l 22.002774353303792 -19.925988654677937" fill="#ff0300" stroke="none" /><path d="M 83.95833913139862 113.55231037782056 l -36.884429527117305 31.160690975505254 a69.28508883301156,69.28508883301156 0 0,0 -0.7618192456797163,-0.9176603575607247 l 37.41534477269056 -30.52116936083077" fill="#51ff2b" stroke="none" /><path d="M 83.28015986056508 112.70617746262583 l -40.485684653291244 30.76693853593337 a71.84973125513687,71.84973125513687 0 0,0 -0.7398426130909216,-0.991140083587175 l 41.009288533077246 -30.065485572836888" fill="#31ff40" stroke="none" /><path d="M 82.85270091963577 112.12312394758628 l -51.44189724109269 36.36937184275885 a84.0,84.0 0 0,0 -0.8245563713514645,-1.1878349512519497 l 52.06031451960629 -35.47849562931989" fill="#4dd2ff" stroke="none" /><path d="M 82.44556493220864 111.52570212397912 l -44.34169290802765 29.113391696015707 a74.04503092652003,74.04503092652003 0 0,0 -0.6903646165004222,-1.0714612157960852 l 44.83626238790512 -28.345808880298172" fill="#36ff6f" stroke="none" /><path d="M 82.05923443525364 110.91462005526583 l -35.69329942309516 21.714725623941362 a62.77967128436725,62.77967128436725 0 0,0 -0.5537140828211123,-0.9280566523827241 l 36.061794381614504 -21.097106877672527" fill="#d4ff1c" stroke="none" /><line stroke="#e1ed5e" stroke-width="0.3" x1="26.63291911575756" x2="22.317208475507996" y1="142.92168965132927" y2="145.44649492493687" /><path d="M 25.769776987707644 143.4266507060508 a86.0,86.0 0 0,1 -11.730757126820373,-40.83630448921669" fill="none" id="id117" stroke="none" /><text fill="#e1ed5e" style="font-size:6.75px; font-family:Arial;" text-anchor="middle"><textPath startOffset="21.46611528233685" xlink:href="#id117">September</textPath></text><path d="M 81.02952815118164 109.00673069616217 l -39.81744585021626 18.90438016723636 a65.07725698750211,65.07725698750211 0 0,0 -0.47173382761597976,-1.0160726972733651 l 40.136954294672066 -18.216187402684167" fill="#a4ff21" stroke="none" /><line stroke="#e1ed5e" stroke-width="0.3" x1="15.007084014347285" x2="10.007500721073583" y1="101.09737516637583" y2="101.16192664675087" /><path d="M 14.007167355692545 101.11028546245083 a86.0,86.0 0 0,1 10.666146001902534,-42.60595125391555" fill="none" id="id118" stroke="none" /><text fill="#e1ed5e" style="font-size:6.75px; font-family:Arial;" text-anchor="middle"><textPath startOffset="22.20632615414155" xlink:href="#id118">October</textPath></text><line stroke="#e1ed5e" stroke-width="0.3" x1="26.266209847984243" x2="21.928928074336255" y1="57.711370442889674" y2="55.22380399835377" /><path d="M 25.398753493254645 57.213857153982495 a86.0,86.0 0 0,1 29.58750427330803,-30.492523968695096" fill="none" id="id119" stroke="none" /><text fill="#e1ed5e" style="font-size:6.75px; font-family:Arial;" text-anchor="middle"><textPath startOffset="21.46611528233685" xlink:href="#id119">November</textPath></text><line stroke="#e1ed5e" stroke-width="0.3" x1="56.762969772571076" x2="54.21961505331055" y1="26.818313649435495" y2="22.513508569990535" /><path d="M 56.25429882871897 25.957352633546506 a86.0,86.0 0 0,1 42.265352541879196,-11.944610805530505" fill="none" id="id120" stroke="none" /><text fill="#e1ed5e" style="font-size:6.75px; font-family:Arial;" text-anchor="middle"><textPath startOffset="22.20632615414155" xlink:href="#id120">December</textPath></text></svg>