<?xml version="1.0" encoding="utf-8" ?>
<svg baseProfile="full" height="200mm" version="1.1" viewBox="0,0,200,200" width="200mm" xmlns="http://www.w3.org/2000/svg" xmlns:ev="http://www.w3.org/2001/xml-events" xmlns:xlink="http://www.w3.org/1999/xlink"><defs /><rect fill="#1a1a1a" height="200" width="200" x="0" y="0" /><text alignment-baseline="middle" fill="#e1ed5e" style="dominant-baseline: central; font-size:9.0px; font-family:Arial;" text-anchor="middle" x="100.0" y="100.0">2022</text><line stroke="#e1ed5e" stroke-width="0.3" x1="100.0" x2="100.0" y1="15.0" y2="10.0" /><path d="M 100.0 14.0 a86.0,86.0 0 0,1 42.46469731375804,11.215312516191453" fill="none" id="id109" stroke="none" /><text fill="#e1ed5e" style="font-size:6.75px; font-family:Arial;" text-anchor="middle"><textPath startOffset="22.20632615414155" xlink:href="#id109">January</textPath></text><line stroke="#e1ed5e" stroke-width="0.3" x1="143.23703022742887" x2="145.7803849466894" y1="26.81831364943548" y2="22.513508569990506" /><path d="M 143.74570117128098 25.957352633546492 a86.0,86.0 0 0,1 28.547481713284135,27.462654790039103" fill="none" id="id110" stroke="none" /><text fill="#e1ed5e" style="font-size:6.75px; font-family:Arial;" text-anchor="middle"><textPath startOffset="19.985693538727396" xlink:href="#id110">February</textPath></text><line stroke="#e1ed5e" stroke-width="0.3" x1="172.23445277983987" x2="176.4835382374775" y1="55.19839476539836" y2="52.563006222186495" /><path d="M 173.08426987136738 54.67131705675599 a86.0,86.0 0 0,1 12.851231095245387,41.99856678651699" fill="none" id="id111" stroke="none" /><text fill="#e1ed5e" style="font-size:6.75px; font-family:Arial;" text-anchor="middle"><textPath startOffset="22.20632615414155" xlink:href="#id111">March</textPath></text><line stroke="#e1ed5e" stroke-width="0.3" x1="184.98032266829074" x2="189.97916517819016" y1="98.17113171792111" y2="98.06355123074" /><path d="M 185.9800911702706 98.14961562048488 a86.0,86.0 0 0,1 -9.607161424134198,41.387399972396054" fill="none" id="id112" stroke="none" /><text fill="#e1ed5e" style="font-size:6.75px; font-family:Arial;" text-anchor="middle"><textPath startOffset="21.466115282336823" xlink:href="#id112">April</textPath></text><line stroke="#e1ed5e" stroke-width="0.3" x1="174.80103733775053" x2="179.2010983576182" y1="140.37084112569926" y2="142.7455964860345" /><path d="M 175.68104954172406 140.8457921977663 a86.0,86.0 0 0,1 -30.038265399797805,32.042727171017184" fill="none" id="id113" stroke="none" /><text fill="#e1ed5e" style="font-size:6.75px; font-family:Arial;" text-anchor="middle"><textPath startOffset="22.206326154141568" xlink:href="#id113">May</textPath></text><line stroke="#e1ed5e" stroke-width="0.3" x1="143.8653032363475" x2="146.44561519142675" y1="172.8068346515853" y2="177.08958963109032" /><path d="M 144.38136562736335 173.6633856474863 a86.0,86.0 0 0,1 -40.68145358897372,12.25698825130547" fill="none" id="id114" stroke="none" /><text fill="#e1ed5e" style="font-size:6.75px; font-family:Arial;" text-anchor="middle"><textPath startOffset="21.466115282336833" xlink:href="#id114">June</textPath></text><line stroke="#e1ed5e" stroke-width="0.3" x1="102.19456741930631" x2="102.32365962044197" y1="184.97166512339345" y2="189.96999836594603" /><path d="M 102.22038585953345 185.97133177190398 a86.0,86.0 0 0,1 -42.740103519485714,-10.115201625700543" fill="none" id="id115" stroke="none" /><text fill="#e1ed5e" style="font-size:6.75px; font-family:Arial;" text-anchor="middle"><textPath startOffset="22.20632615414155" xlink:href="#id115">July</textPath></text><path d="M 98.73552117531835 120.96189622390904 l -2.2057899792457483 36.56648077782468 a57.632950002798886,57.632950002798886 0 0,0 -0.9897422846273974,-0.06825842271332266 l 2.834895024652076 -36.523094010595074" fill="#ff0000" stroke="none" /><path d="M 98.01472825383883 120.90594882070398 l -4.463126053084297 46.99904938784926 a68.21048757985045,68.21048757985045 0 0,0 -1.1679175192072977,-0.12105942619245308 l 5.2714761688971885 -46.91526059320105" fill="#bbff1f" stroke="none" /><path d="M 97.2962882734958 120.8252237178851 l -6.729757780303575 51.83567092901845 a73.27070327098197,73.27070327098197 0 0,0 -1.2493401878558181,-0.17314716602309024 l 7.621026559346224 -51.712149197502754" fill="#3cff2e" stroke="none" /><path d="M 96.58105272829116 120.7198165907248 l -9.25055229460041 56.06104209124854 a77.8191266926189,77.8191266926189 0 0,0 -1.3197791433677653,-0.2294605210981368 l 10.214180409440226 -55.8935029916294" fill="#3bff9b" stroke="none" /><path d="M 95.86986931433489 120.58985236759428 l -10.202284637801522 50.86123188149929 a72.87438212002492,72.87438212002492 0 0,0 -1.2277894589105927,-0.25729521868802524 l 11.0762655581415 -50.678080682084726" fill="#46ff2d" stroke="none" /><path d="M 95.16358092515715 120.4354850818985 l -13.12697694179483 55.465859619121254 a77.99806230845465,77.99806230845465 0 0,0 -1.303855408084638,-0.3204559366627312 l 14.079785634622679 -55.231682424144495" fill="#3bffa0" stroke="none" /><path d="M 94.11515582081647 120.15858648285463 l -17.151838386441483 58.753776128189145 a82.20614159833943,82.20614159833943 0 0,0 -1.3549334696140003,-0.408230339705966 l 18.16064683049573 -58.44983041937745" fill="#48f9ff" stroke="none" /><path d="M 93.42475214034765 119.94407469862007 l -19.572395730889937 59.36708863602601 a83.5102382635383,83.5102382635383 0 0,0 -1.3613372460587128,-0.46183950644540067 l 20.591402709885877 -59.02138614268249" fill="#4cdcff" stroke="none" /><path d="M 92.7421414339146 119.70592522655815 l -17.583451435121084 47.74110380497536 a71.87622978256834,71.87622978256834 0 0,0 -1.1573092242363339,-0.43759532159233755 l 18.4026308801177 -47.431360233276386" fill="#5dff2a" stroke="none" /><path d="M 91.7346041902142 119.30500536409082 l -22.02637029556591 51.44571494131151 a76.96268912606033,76.96268912606033 0 0,0 -1.213369294875328,-0.5319054412367129 l 22.90866026509898 -51.05894494678034" fill="#38ff85" stroke="none" /><path d="M 91.07499286063937 119.00905698771935 l -22.906872145638346 48.7885366619476 a74.89847958069714,74.89847958069714 0 0,0 -1.162307889590083,-0.557978420337377 l 23.743292703228672 -48.38700396511066" fill="#32ff4d" stroke="none" /><path d="M 90.10565033884886 118.52300852407294 l -28.523210066777906 53.397714988312025 a81.53833065493748,81.53833065493748 0 0,0 -1.232305052770909,-0.6719509695114375 l 29.438137931417454 -52.89882336704082" fill="#46fff6" stroke="none" /><line stroke="#e1ed5e" stroke-width="0.3" x1="58.666819895761336" x2="56.23545636021788" y1="174.27360380694188" y2="178.64263932499728" /><path d="M 58.180547188652646 175.14741091055294 a86.0,86.0 0 0,1 -31.652253787137756,-30.449443065178592" fill="none" id="id116" stroke="none" /><text fill="#e1ed5e" style="font-size:6.75px; font-family:Arial;" text-anchor="middle"><textPath startOffset="22.20632615414155" xlink:href="#id116">August</textPath></text><path d="M 87.95078237400918 117.19931262002967 l -30.710272027108257 43.836503384339316 a74.52345128020221,74.52345128020221 0 0,0 -1.0442959593403998,-0.7450774392119627 l 31.460295314297543 -43.30138168328313" fill="#31ff43" stroke="none" /><path d="M 87.07902340077011 116.55440617244103 l -37.547635875548714 48.10617915179874 a82.02482636130765,82.02482636130765 0 0,0 -1.1055482148918028,-0.878314364679811 l 38.370141583157874 -47.4527308731138" fill="#47fdff" stroke="none" /><path d="M 86.51685102203217 116.09983520530335 l -38.56108609436556 46.0446689769032 a81.05887862730759,81.05887862730759 0 0,0 -1.0620045685867852,-0.9050633330467482 l 39.347956139529394 -45.374081253633506" fill="#44ffea" stroke="none" /><path d="M 85.97065885151581 115.62618273729859 l -40.91835871888719 45.57575041367856 a82.24917228842732,82.24917228842732 0 0,0 -1.045349578083788,-0.9549020545802631 l 41.696807846437835 -44.86465559251172" fill="#48f8ff" stroke="none" /><path d="M 84.67929136418377 114.36230785411682 l -26.83123009782585 25.152778238256037 a57.777400148261734,57.777400148261734 0 0,0 -0.6739419858564196,-0.7314309204883817 l 27.260218491677996 -24.68719606296631" fill="#ff0500" stroke="none" /><path d="M 83.95833913139862 113.55231037782056 l -45.69776482296839 38.60636984700907 a80.82255011765528,80.82255011765528 0 0,0 -0.8886785771891302,-1.0704705945992703 l 46.35553940005106 -37.81403799529604" fill="#44ffe5" stroke="none" /><path d="M 83.28015986056508 112.70617746262583 l -50.159520418304766 38.118532387877515 a84.0,84.0 0 0,0 -0.8649549332196598,-1.158748481962768 l 50.80823661821951 -37.24947102640544" fill="#4dd2ff" stroke="none" /><line stroke="#e1ed5e" stroke-width="0.3" x1="26.63291911575756" x2="22.317208475507996" y1="142.92168965132927" y2="145.44649492493687" /><path d="M 25.769776987707644 143.4266507060508 a86.0,86.0 0 0,1 -11.730757126820373,-40.83630448921669" fill="none" id="id117" stroke="none" /><text fill="#e1ed5e" style="font-size:6.75px; font-family:Arial;" text-anchor="middle"><textPath startOffset="21.46611528233685" xlink:href="#id117">September</textPath></text><line stroke="#e1ed5e" stroke-width="0.3" x1="15.007084014347285" x2="10.007500721073583" y1="101.09737516637583" y2="101.16192664675087" /><path d="M 14.007167355692545 101.11028546245083 a86.0,86.0 0 0,1 10.666146001902534,-42.60595125391555" fill="none" id="id118" stroke="none" /><text fill="#e1ed5e" style="font-size:6.75px; font-family:Arial;" text-anchor="middle"><textPath startOffset="22.20632615414155" xlink:href="#id118">October</textPath></text><line stroke="#e1ed5e" stroke-width="0.3" x1="26.266209847984243" x2="21.928928074336255" y1="57.711370442889674" y2="55.22380399835377" /><path d="M 25.398753493254645 57.213857153982495 a86.0,86.0 0 0,1 29.58750427330803,-30.492523968695096" fill="none" id="id119" stroke="none" /><text fill="#e1ed5e" style="font-size:6.75px; font-family:Arial;" text-anchor="middle"><textPath startOffset="21.46611528233685" xlink:href="#id119">November</textPath></text><line stroke="#e1ed5e" stroke-width="0.3" x1="56.762969772571076" x2="54.21961505331055" y1="26.818313649435495" y2="22.513508569990535" /><path d="M 56.25429882871897 25.957352633546506 a86.0,86.0 0 0,1 42.265352541879196,-11.944610805530505" fill="none" id="id120" stroke="none" /><text fill="#e1ed5e" style="font-size:6.75px; font-family:Arial;" text-anchor="middle"><textPath startOffset="22.20632615414155" xlink:href="#id120">December</textPath></text></svg>