<?xml version="1.0" encoding="utf-8" ?>
<svg baseProfile="full" height="200mm" version="1.1" viewBox="0,0,200,200" width="200mm" xmlns="http://www.w3.org/2000/svg" xmlns:ev="http://www.w3.org/2001/xml-events" xmlns:xlink="http://www.w3.org/1999/xlink"><defs /><rect fill="#1a1a1a" height="200" width="200" x="0" y="0" /><text alignment-baseline="middle" fill="#e1ed5e" style="dominant-baseline: central; font-size:9.0px; font-family:Arial;" text-anchor="middle" x="100.0" y="100.0">2022</text><line stroke="#e1ed5e" stroke-width="0.3" x1="100.0" x2="100.0" y1="15.0" y2="10.0" /><path d="M 100.0 14.0 a86.0,86.0 0 0,1 42.46469731375804,11.215312516191453" fill="none" id="id109" stroke="none" /><text fill="#e1ed5e" style="font-size:6.75px; font-family:Arial;" text-anchor="middle"><textPath startOffset="22.20632615414155" xlink:href="#id109">January</textPath></text><line stroke="#e1ed5e" stroke-width="0.3" x1="143.23703022742887" x2="145.7803849466894" y1="26.81831364943548" y2="22.513508569990506" /><path d="M 143.74570117128098 25.957352633546492 a86.0,86.0 0 0,1 28.547481713284135,27.462654790039103" fill="none" id="id110" stroke="none" /><text fill="#e1ed5e" style="font-size:6.75px; font-family:Arial;" text-anchor="middle"><textPath startOffset="19.985693538727396" xlink:href="#id110">February</textPath></text><line stroke="#e1ed5e" stroke-width="0.3" x1="172.23445277983987" x2="176.4835382374775" y1="55.19839476539836" y2="52.563006222186495" /><path d="M 173.08426987136738 54.67131705675599 a86.0,86.0 0 0,1 12.851231095245387,41.99856678651699" fill="none" id="id111" stroke="none" /><text fill="#e1ed5e" style="font-size:6.75px; font-family:Arial;" text-anchor="middle"><textPath startOffset="22.20632615414155" xlink:href="#id111">March</textPath></text><line stroke="#e1ed5e" stroke-width="0.3" x1="184.98032266829074" x2="189.97916517819016" y1="98.17113171792111" y2="98.06355123074" /><path d="M 185.9800911702706 98.14961562048488 a86.0,86.0 0 0,1 -9.607161424134198,41.387399972396054" fill="none" id="id112" stroke="none" /><text fill="#e1ed5e" style="font-size:6.75px; font-family:Arial;" text-anchor="middle"><textPath startOffset="21.466115282336823" xlink:href="#id112">April</textPath></text><line stroke="#e1ed5e" stroke-width="0.3" x1="174.80103733775053" x2="179.2010983576182" y1="140.37084112569926" y2="142.7455964860345" /><path d="M 175.68104954172406 140.8457921977663 a86.0,86.0 0 0,1 -30.038265399797805,32.042727171017184" fill="none" id="id113" stroke="none" /><text fill="#e1ed5e" style="font-size:6.75px; font-family:Arial;" text-anchor="middle"><textPath startOffset="22.206326154141568" xlink:href="#id113">May</textPath></text><line stroke="#e1ed5e" stroke-width="0.3" x1="143.8653032363475" x2="146.44561519142675" y1="172.8068346515853" y2="177.08958963109032" /><path d="M 144.38136562736335 173.6633856474863 a86.0,86.0 0 0,1 -40.68145358897372,12.25698825130547" fill="none" id="id114" stroke="none" /><text fill="#e1ed5e" style="font-size:6.75px; font-family:Arial;" text-anchor="middle"><textPath startOffset="21.466115282336833" xlink:href="#id114">June</textPath></text><line stroke="#e1ed5e" stroke-width="0.3" x1="102.19456741930631" x2="102.32365962044197" y1="184.97166512339345" y2="189.96999836594603" /><path d="M 102.22038585953345 185.97133177190398 a86.0,86.0 0 0,1 -42.740103519485714,-10.115201625700543" fill="none" id="id115" stroke="none" /><text fill="#e1ed5e" style="font-size:6.75px; font-family:Arial;" text-anchor="middle"><textPath startOffset="22.20632615414155" xlink:href="#id115">July</textPath></text><path d="M 98.73552117531835 120.96189622390904 l -1.6476025726486931 27.313129703696404 a48.362778522078884,48.362778522078884 0 0,0 -0.8305437584410755,-0.05727916026839759 l 2.1175090918686985 -27.28072219891172" fill="#ff0000" stroke="none" /><path d="M 98.01472825383883 120.90594882070398 l -3.333707214333955 35.10567887788753 a56.263611460941725,56.263611460941725 0 0,0 -0.9633600323144093,-0.0998562062909046 l 3.9374998432539576 -35.04309330314086" fill="#ffbd11" stroke="none" /><path d="M 97.2962882734958 120.8252237178851 l -5.02675519267803 38.71836647241695 a60.04331146380257,60.04331146380257 0 0,0 -1.0237996726500802,-0.1418893057454314 l 5.692483456514941 -38.626102601178914" fill="#f0ff19" stroke="none" /><path d="M 96.58105272829116 120.7198165907248 l -6.909648653049245 41.87448399166799 a63.440731073781514,63.440731073781514 0 0,0 -1.0759276963091604,-0.18706382132167262 l 7.629425320830455 -41.74934159182531" fill="#abff21" stroke="none" /><path d="M 95.86986931433489 120.58985236759428 l -7.620539840281544 37.990514638521645 a59.74728158151286,59.74728158151286 0 0,0 -1.0066237323772371,-0.21094779033887906 l 8.273355034088167 -37.85371086745622" fill="#f6ff19" stroke="none" /><path d="M 95.16358092515715 120.4354850818985 l -9.805122511163445 41.4299157501314 a63.574386038108756,63.574386038108756 0 0,0 -1.0627418758640559,-0.261196096706006 l 10.516817671770712 -41.254998395111365" fill="#a9ff21" stroke="none" /><path d="M 94.11515582081647 120.15858648285463 l -12.811470410622988 43.88580672341741 a66.71758748936143,66.71758748936143 0 0,0 -1.0996488892876362,-0.33131518978497704 l 13.564994274350871 -43.65877616452671" fill="#6eff28" stroke="none" /><path d="M 93.42475214034765 119.94407469862007 l -14.619492273756423 44.34391709442161 a67.69167524965624,67.69167524965624 0 0,0 -1.1034718698162573,-0.37435757025511085 l 15.380633876509906 -44.08569653726838" fill="#5cff2a" stroke="none" /><path d="M 92.7421414339146 119.70592522655815 l -13.133861379883086 35.659952302921546 a59.00171723741737,59.00171723741737 0 0,0 -0.9500113154405782,-0.3592129902627349 l 13.745742916083946 -35.42859106255218" fill="#fff817" stroke="none" /><path d="M 91.7346041902142 119.30500536409082 l -16.452474943918478 38.427091013460775 a62.80101979063505,62.80101979063505 0 0,0 -0.9901009172899602,-0.4340311457560841 l 17.111496535866184 -38.13819531441024" fill="#b8ff1f" stroke="none" /><path d="M 91.07499286063937 119.00905698771935 l -17.110160909967412 36.44232645733418 a61.25916993664792,61.25916993664792 0 0,0 -0.9506470214844749,-0.4563683410369115 l 17.734920599452128 -36.14240383979771" fill="#d7ff1c" stroke="none" /><path d="M 90.10565033884886 118.52300852407294 l -21.305253323479103 39.88512660592828 a66.21876981463058,66.21876981463058 0 0,0 -1.0007774745373903,-0.5457036735900028 l 21.988653609885134 -39.51248228057851" fill="#77ff27" stroke="none" /><line stroke="#e1ed5e" stroke-width="0.3" x1="58.666819895761336" x2="56.23545636021788" y1="174.27360380694188" y2="178.64263932499728" /><path d="M 58.180547188652646 175.14741091055294 a86.0,86.0 0 0,1 -31.652253787137756,-30.449443065178592" fill="none" id="id116" stroke="none" /><text fill="#e1ed5e" style="font-size:6.75px; font-family:Arial;" text-anchor="middle"><textPath startOffset="22.20632615414155" xlink:href="#id116">August</textPath></text><path d="M 87.95078237400918 117.19931262002967 l -22.938867106426166 32.74343270734115 a60.979044630736965,60.979044630736965 0 0,0 -0.8544984004147119,-0.6096619203562227 l 23.499092834689765 -32.3437265251407" fill="#dcff1b" stroke="none" /><path d="M 87.07902340077011 116.55440617244103 l -28.045998053987056 35.93264330537251 a66.58215508019973,66.58215508019973 0 0,0 -0.8974085768657821,-0.7129556480946628 l 28.660364123570197 -35.444553743272714" fill="#70ff27" stroke="none" /><path d="M 86.51685102203217 116.09983520530335 l -28.80298906559052 34.392809731162174 a65.86064578577141,65.86064578577141 0 0,0 -0.8628827328855002,-0.7353673848061406 l 29.390737275053077 -33.89191795613308" fill="#7dff26" stroke="none" /><path d="M 85.97065885151581 115.62618273729859 l -30.56374075869787 34.04255361503101 a66.74972902430298,66.74972902430298 0 0,0 -0.8483587023596112,-0.7749555602148115 l 31.145199010524337 -33.511405288229625" fill="#6dff28" stroke="none" /><path d="M 84.67929136418377 114.36230785411682 l -20.04143828399438 18.787727990669076 a48.47067475586513,48.47067475586513 0 0,0 -0.5653840899199956,-0.6136127648942339 l 20.361868781910104 -18.439963970973498" fill="#ff0300" stroke="none" /><path d="M 83.95833913139862 113.55231037782056 l -34.13369160030504 28.83681351309306 a65.68412151820422,65.68412151820422 0 0,0 -0.7222250667634474,-0.869966618412394 l 34.62501266696203 -28.244985637566906" fill="#81ff25" stroke="none" /><path d="M 83.28015986056508 112.70617746262583 l -37.46637515883659 28.47242603275172 a68.0575000582607,68.0575000582607 0 0,0 -0.7007936954522604,-0.9388276771272689 l 37.95093012098394 -27.823285476115142" fill="#56ff2b" stroke="none" /><path d="M 82.85270091963577 112.12312394758628 l -47.60550395583883 33.65704548215557 a79.30163563295008,79.30163563295008 0 0,0 -0.7784365347588252,-1.1213958868602993 l 48.17780139775979 -32.832608333108254" fill="#43ffde" stroke="none" /><path d="M 82.44556493220864 111.52570212397912 l -41.03481306780945 26.942196106356548 a70.08908040026253,70.08908040026253 0 0,0 -0.6534810034641254,-1.0142170292861312 l 41.49249893465062 -26.231857477148967" fill="#32ff2f" stroke="none" /><path d="M 82.05923443525364 110.91462005526583 l -33.031392658779076 20.095301923754192 a59.663859874374715,59.663859874374715 0 0,0 -0.5262327561140517,-0.8819963680987314 l 33.37240629059136 -19.52374346176935" fill="#f8ff18" stroke="none" /><line stroke="#e1ed5e" stroke-width="0.3" x1="26.63291911575756" x2="22.317208475507996" y1="142.92168965132927" y2="145.44649492493687" /><path d="M 25.769776987707644 143.4266507060508 a86.0,86.0 0 0,1 -11.730757126820373,-40.83630448921669" fill="none" id="id117" stroke="none" /><text fill="#e1ed5e" style="font-size:6.75px; font-family:Arial;" text-anchor="middle"><textPath startOffset="21.46611528233685" xlink:href="#id117">September</textPath></text><path d="M 81.02952815118164 109.00673069616217 l -36.847971742762354 17.494544196460033 a61.790098041035726,61.790098041035726 0 0,0 -0.44790577856196845,-0.9647491994537843 l 37.14365213816415 -16.857674929727423" fill="#ccff1d" stroke="none" /><path d="M 80.73074385275274 108.34839909993369 l -53.60098936246361 23.222611601074814 a79.41537255046237,79.41537255046237 0 0,0 -0.5326465381895263,-1.2590190750362569 l 53.99278688184544 -22.296518000372398" fill="#43ffe0" stroke="none" /><path d="M 80.32549172779594 107.34259656027581 l -48.38539686147145 18.057602439017412 a72.64517049335493,72.64517049335493 0 0,0 -0.42713886243183175,-1.1753027005706453 l 48.6890599849085 -17.22205194144065" fill="#34ff60" stroke="none" /><path d="M 79.86692584326677 105.97154293290107 l -60.399222470199675 17.914628798703227 a84.0,84.0 0 0,0 -0.3992294524555837,-1.389770097981616 l 60.698644559541364 -16.872301225217015" fill="#4dd2ff" stroke="none" /><path d="M 79.50377843672027 104.57218783832718 l -61.1524369455072 13.641559622249561 a83.65550808429873,83.65550808429873 0 0,0 -0.30142259215208483,-1.4081460017866185 l 61.37819357638373 -12.586899801046778" fill="#4cd7ff" stroke="none" /><path d="M 79.35854240842038 103.8639653848113 l -61.60654687190903 11.532400923465708 a83.6766534567719,83.6766534567719 0 0,0 -0.25283720738014287,-1.4180453317457113 l 61.795930521628364 -10.470236840986782" fill="#4cd7ff" stroke="none" /><line stroke="#e1ed5e" stroke-width="0.3" x1="15.007084014347285" x2="10.007500721073583" y1="101.09737516637583" y2="101.16192664675087" /><path d="M 14.007167355692545 101.11028546245083 a86.0,86.0 0 0,1 10.666146001902534,-42.60595125391555" fill="none" id="id118" stroke="none" /><text fill="#e1ed5e" style="font-size:6.75px; font-family:Arial;" text-anchor="middle"><textPath startOffset="22.20632615414155" xlink:href="#id118">October</textPath></text><line stroke="#e1ed5e" stroke-width="0.3" x1="26.266209847984243" x2="21.928928074336255" y1="57.711370442889674" y2="55.22380399835377" /><path d="M 25.398753493254645 57.213857153982495 a86.0,86.0 0 0,1 29.58750427330803,-30.492523968695096" fill="none" id="id119" stroke="none" /><text fill="#e1ed5e" style="font-size:6.75px; font-family:Arial;" text-anchor="middle"><textPath startOffset="21.46611528233685" xlink:href="#id119">November</textPath></text><line stroke="#e1ed5e" stroke-width="0.3" x1="56.762969772571076" x2="54.21961505331055" y1="26.818313649435495" y2="22.513508569990535" /><path d="M 56.25429882871897 25.957352633546506 a86.0,86.0 0 0,1 42.265352541879196,-11.944610805530505" fill="none" id="id120" stroke="none" /><text fill="#e1ed5e" style="font-size:6.75px; font-family:Arial;" text-anchor="middle"><textPath startOffset="22.20632615414155" xlink:href="#id120">December</textPath></text></svg>