<?xml version="1.0" encoding="utf-8" ?>
<svg baseProfile="full" height="200mm" version="1.1" viewBox="0,0,200,200" width="200mm" xmlns="http://www.w3.org/2000/svg" xmlns:ev="http://www.w3.org/2001/xml-events" xmlns:xlink="http://www.w3.org/1999/xlink"><defs /><rect fill="#1a1a1a" height="200" width="200" x="0" y="0" /><text alignment-baseline="middle" fill="#e1ed5e" style="dominant-baseline: central; font-size:9.0px; font-family:Arial;" text-anchor="middle" x="100.0" y="100.0">2024</text><line stroke="#e1ed5e" stroke-width="0.3" x1="100.0" x2="100.0" y1="15.0" y2="10.0" /><path d="M 100.0 14.0 a86.0,86.0 0 0,1 42.35913384403234,11.155469271406648" fill="none" id="id133" stroke="none" /><text fill="#e1ed5e" style="font-size:6.75px; font-family:Arial;" text-anchor="middle"><textPath startOffset="22.145653131862478" xlink:href="#id133">January</textPath></text><line stroke="#e1ed5e" stroke-width="0.3" x1="143.13028292997686" x2="145.6673583964461" y1="26.7553504044142" y2="22.446841604673864" /><path d="M 143.63769802327073 25.89364864446614 a86.0,86.0 0 0,1 29.32050498858742,28.57503671076993" fill="none" id="id134" stroke="none" /><text fill="#e1ed5e" style="font-size:6.75px; font-family:Arial;" text-anchor="middle"><textPath startOffset="20.669276256404974" xlink:href="#id134">February</textPath></text><line stroke="#e1ed5e" stroke-width="0.3" x1="172.87174338648825" x2="177.1583165268699" y1="56.24261187166439" y2="53.66864786411523" /><path d="M 173.72905801456457 55.72781907015455 a86.0,86.0 0 0,1 12.242430191666344,42.057860355516425" fill="none" id="id135" stroke="none" /><text fill="#e1ed5e" style="font-size:6.75px; font-family:Arial;" text-anchor="middle"><textPath startOffset="22.145653131862474" xlink:href="#id135">March</textPath></text><line stroke="#e1ed5e" stroke-width="0.3" x1="184.99686870605535" x2="189.99668451229388" y1="99.2704041080226" y2="99.22748670261217" /><path d="M 185.99683186730306 99.26182062694052 a86.0,86.0 0 0,1 -10.086455211305974,41.156179273409016" fill="none" id="id136" stroke="none" /><text fill="#e1ed5e" style="font-size:6.75px; font-family:Arial;" text-anchor="middle"><textPath startOffset="21.40746469413373" xlink:href="#id136">April</textPath></text><line stroke="#e1ed5e" stroke-width="0.3" x1="174.33088141563837" x2="178.70328620479359" y1="141.23008692659167" y2="143.65538615756765" /><path d="M 175.20536237346943 141.71514677278685 a86.0,86.0 0 0,1 -30.301960400862466,31.631185727798858" fill="none" id="id137" stroke="none" /><text fill="#e1ed5e" style="font-size:6.75px; font-family:Arial;" text-anchor="middle"><textPath startOffset="22.145653131862474" xlink:href="#id137">May</textPath></text><line stroke="#e1ed5e" stroke-width="0.3" x1="143.1302829299769" x2="145.66735839644613" y1="173.24464959558577" y2="177.55315839532614" /><path d="M 143.63769802327073 174.10635135553383 a86.0,86.0 0 0,1 -40.68552437913181,11.842963189579606" fill="none" id="id138" stroke="none" /><text fill="#e1ed5e" style="font-size:6.75px; font-family:Arial;" text-anchor="middle"><textPath startOffset="21.407464694133747" xlink:href="#id138">June</textPath></text><path d="M 103.58742460773223 120.69131181640829 l 2.552968867085535 14.724846000273699 a35.944522065562495,35.944522065562495 0 0,0 -0.6088702447964681,0.10018936707895394 l -2.2998211192359945 -14.766501365848322" fill="#ff4006" stroke="none" /><line stroke="#e1ed5e" stroke-width="0.3" x1="101.45913802915013" x2="101.54496967792366" y1="184.9874750549273" y2="189.98673829345242" /><path d="M 101.47630435890484 185.9873277026323 a86.0,86.0 0 0,1 -42.54439059252881,-10.42667462771756" fill="none" id="id139" stroke="none" /><text fill="#e1ed5e" style="font-size:6.75px; font-family:Arial;" text-anchor="middle"><textPath startOffset="22.145653131862474" xlink:href="#id139">July</textPath></text><path d="M 91.26138138417905 119.09545874513695 l -6.20235439503873 13.553263699911952 a35.90503797247787,35.90503797247787 0 0,0 -0.5582571488993687,-0.26129253374082895 l 6.434100257809589 -13.444794934600596" fill="#ff3f05" stroke="none" /><line stroke="#e1ed5e" stroke-width="0.3" x1="58.13341422392154" x2="55.67067388415222" y1="173.97424548756322" y2="178.32567169271397" /><path d="M 57.64086615596768 174.84453072859336 a86.0,86.0 0 0,1 -31.369924170532247,-30.572349798747897" fill="none" id="id140" stroke="none" /><text fill="#e1ed5e" style="font-size:6.75px; font-family:Arial;" text-anchor="middle"><textPath startOffset="22.145653131862474" xlink:href="#id140">August</textPath></text><line stroke="#e1ed5e" stroke-width="0.3" x1="26.387840678322732" x2="22.057713659400548" y1="142.50000000000003" y2="145.00000000000006" /><path d="M 25.521815274538298 143.00000000000003 a86.0,86.0 0 0,1 -11.493303480769221,-40.785679425670985" fill="none" id="id141" stroke="none" /><text fill="#e1ed5e" style="font-size:6.75px; font-family:Arial;" text-anchor="middle"><textPath startOffset="21.40746469413373" xlink:href="#id141">September</textPath></text><path d="M 80.83023694016515 108.57439118712176 l -13.70292842839233 6.129145591806798 a36.01121824500621,36.01121824500621 0 0,0 -0.24756189437482293,-0.5664700619002629 l 13.80612420478412 -5.893013460130685" fill="#ff4106" stroke="none" /><path d="M 80.68587082218212 108.24405325689762 l -10.30587235756275 4.398964084392408 a32.20544019957049,32.20544019957049 0 0,0 -0.21266962957172175,-0.5103296913119024 l 10.379867831670957 -4.221401883639224" fill="#ff0000" stroke="none" /><path d="M 79.94057633289273 106.21446072829308 l -14.134990384039394 4.3790561530664665 a35.79777300638834,35.79777300638834 0 0,0 -0.17681317866177754,-0.5885535663952833 l 14.208079882704801 -4.13576498308046" fill="#ff3e05" stroke="none" /><path d="M 79.64726062577567 105.17358676015961 l -18.436055876174873 4.68637331008795 a40.022361868888595,40.022361868888595 0 0,0 -0.16354370793472892,-0.6673141378008683 l 18.5137871106259 -4.369203347678982" fill="#ff830c" stroke="none" /><path d="M 79.34024301695615 103.76489593502545 l -20.6294974885964 3.759381647140335 a41.96924216563061,41.96924216563061 0 0,0 -0.12308016373728457,-0.7098936771559441 l 20.690992469825918 -3.404694937063798" fill="#ffa20f" stroke="none" /><path d="M 79.0935383218832 101.97986365728391 l -14.096021782366611 1.3349079183687078 a35.159089280016474,35.159089280016474 0 0,0 -0.0517447656615241,-0.6013526125153289 l 14.116860170725875 -1.0927342584777169" fill="#ff3304" stroke="none" /><path d="M 79.06263194458094 101.62068470465958 l -20.923895724076363 1.6196418610086718 a41.98648736758852,41.98648736758852 0 0,0 -0.04945616105081581,-0.7190817275435146 l 20.948615846292245 -1.2602167093108139" fill="#ffa20f" stroke="none" /><path d="M 79.03789590574601 101.26102812881392 l -16.31223466014116 0.9813035303020907 a37.34172439573297,37.34172439573297 0 0,0 -0.03300014532073944,-0.6401940031626725 l 16.326676394918476 -0.7011377337626875" fill="#ff5708" stroke="none" /><path d="M 79.00696218219943 100.54070618675478 l -20.857791504570663 0.5372227214776676 a41.86470883335332,41.86470883335332 0 0,0 -0.012337267343673216,-0.718583971954279 l 20.863940203513003 -0.17909183355433617" fill="#ffa00e" stroke="none" /><line stroke="#e1ed5e" stroke-width="0.3" x1="15.003131293944662" x2="10.003315487706104" y1="100.72959589197737" y2="100.7725132973878" /><path d="M 14.003168132696942 100.73817937305945 a86.0,86.0 0 0,1 10.791469493833604,-42.45332614584628" fill="none" id="id142" stroke="none" /><text fill="#e1ed5e" style="font-size:6.75px; font-family:Arial;" text-anchor="middle"><textPath startOffset="22.145653131862435" xlink:href="#id142">October</textPath></text><path d="M 79.00696218219943 99.45929381324524 l -16.336533129445947 -0.4207711437420256 a37.34195101708762,37.34195101708762 0 0,0 0.022005634856416066,-0.6406700485909268 l 16.32690280759268 0.701147456897091" fill="#ff5708" stroke="none" /><path d="M 79.2786578344484 96.59031103205396 l -23.63577312263268 -3.8892574728626808 a44.95362383429246,44.95362383429246 0 0,0 0.13183224420096887,-0.7603733514955991 l 23.56552606093948 4.294423857278873" fill="#ffd013" stroke="none" /><path d="M 79.407916724674 95.88100663000787 l -26.154189271980847 -5.231570345186599 a47.67228795493993,47.67228795493993 0 0,0 0.16740303066843978,-0.8010841023277643 l 26.06052853048804 5.679770898799773" fill="#fff817" stroke="none" /><path d="M 79.73907114497095 94.47779374421319 l -20.139679369610164 -5.489159169363381 a41.87432761784933,41.87432761784933 0 0,0 0.1949778522779182,-0.6919076131087111 l 20.042483025257663 5.834074706375105" fill="#ffa00e" stroke="none" /><path d="M 80.05021161711548 93.44210830539832 l -28.34638731774284 -9.318020542136207 a50.838618949126385,50.838618949126385 0 0,0 0.27964769694054814,-0.8267287258653723 l 28.182254199229924 9.80325094247574" fill="#d8ff1c" stroke="none" /><path d="M 80.41425534168474 92.42381321644754 l -25.11786023050489 -9.716127930253434 a47.93158080240055,47.93158080240055 0 0,0 0.3034327553732889,-0.7648487604871137 l 24.947368800165467 10.145877707954131" fill="#fffc17" stroke="none" /><path d="M 80.5471966667186 92.08871423366112 l -33.39780465738677 -13.58259640454506 a57.054129874699875,57.054129874699875 0 0,0 0.37675872743238453,-0.9040837916388618 l 33.15972008541791 14.153912705625185" fill="#85ff25" stroke="none" /><path d="M 80.9802524753101 91.09779779509293 l -41.06511428741089 -19.22054698568405 a66.34063340831275,66.34063340831275 0 0,0 0.491618028495788,-1.0272925994984052 l 40.7291170009552 19.922652087247542" fill="#33ff50" stroke="none" /><path d="M 81.29705330413844 90.45014215332179 l -18.560009451450277 -9.476873071213628 a41.83950752886972,41.83950752886972 0 0,0 0.33210991919642063,-0.6368645603933965 l 18.394591463278914 9.79408387471151" fill="#ffa00e" stroke="none" /><line stroke="#e1ed5e" stroke-width="0.3" x1="26.387840678322718" x2="22.05771365940052" y1="57.49999999999999" y2="54.99999999999999" /><path d="M 25.521815274538284 56.99999999999999 a86.0,86.0 0 0,1 29.574782752854787,-30.34633250058573" fill="none" id="id143" stroke="none" /><text fill="#e1ed5e" style="font-size:6.75px; font-family:Arial;" text-anchor="middle"><textPath startOffset="21.40746469413373" xlink:href="#id143">November</textPath></text><path d="M 82.18462484594161 88.88188828441811 l -53.44612546217515 -33.35433514674566 a84.0,84.0 0 0,0 0.7739292334964403,-1.2167453012853122 l 52.865678537052815 34.266894122709644" fill="#4dd2ff" stroke="none" /><path d="M 82.78059297857968 87.97951657250589 l -10.496487578628226 -7.327363528189096 a33.80103541759542,33.80103541759542 0 0,0 0.33621552156139695,-0.47292923649941015 l 10.369156958536857 7.506469991398027" fill="#ff1c02" stroke="none" /><path d="M 83.64595745247003 86.82634096563983 l -18.697402378870624 -15.061303836749408 a45.009075970979794,45.009075970979794 0 0,0 0.48985559410940877,-0.5975441754080171 l 18.436099965522583 15.380050293855918" fill="#ffd113" stroke="none" /><path d="M 84.34580500576568 86.00192230759919 l -22.332963559749654 -19.970273727015307 a50.959524263462924,50.959524263462924 0 0,0 0.5887094166819442,-0.6470947756439709 l 21.986856442225843 20.350706078216934" fill="#d7ff1c" stroke="none" /><line stroke="#e1ed5e" stroke-width="0.3" x1="56.869717070023135" x2="54.33264160355391" y1="26.7553504044142" y2="22.446841604673864" /><path d="M 56.362301976729285 25.89364864446614 a86.0,86.0 0 0,1 42.16139366436587,-11.88097634709845" fill="none" id="id144" stroke="none" /><text fill="#e1ed5e" style="font-size:6.75px; font-family:Arial;" text-anchor="middle"><textPath startOffset="22.145653131862474" xlink:href="#id144">December</textPath></text><path d="M 91.5904679813234 80.7573450057729 l -7.176018680668301 -16.42013507975909 a38.919712055243394,38.919712055243394 0 0,0 0.6144957810469162,-0.26229170875111635 l 6.893087824450953 16.54090143816961" fill="#ff710a" stroke="none" /><path d="M 94.30408787586887 79.78721728523814 l -5.922553853700515 -21.01705425794032 a42.835595110534314,42.835595110534314 0 0,0 0.7094769848321627,-0.19337110712001704 l 5.560895467933675 21.115625859204474" fill="#ffaf10" stroke="none" /><path d="M 95.00130118170881 79.60360301121753 l -5.454575893867109 -22.256531025565728 a43.91518211740692,43.91518211740692 0 0,0 0.7337345413168744,-0.1731593538952056 l 5.071709198810329 22.346886523107166" fill="#ffc011" stroke="none" /><path d="M 96.41257539226777 79.30868818359171 l -4.13418235564869 -23.844865211173083 a45.20060042000548,45.20060042000548 0 0,0 0.765660497376413,-0.12598914347529971 l 3.7242443552192044 23.912320353144054" fill="#ffd413" stroke="none" /></svg>